<svg width="36" height="36" viewBox="0 0 36 36" fill="none" xmlns="http://www.w3.org/2000/svg">
<path d="M35.9017 10.5841C35.8173 8.67131 35.508 7.35626 35.0649 6.21675C34.6078 5.00719 33.9045 3.92427 32.9831 3.02404C32.0829 2.10979 30.9928 1.39939 29.7973 0.949407C28.6512 0.506296 27.343 0.196969 25.4302 0.112632C23.503 0.0211529 22.8913 0 18.0036 0C13.1159 0 12.5041 0.0211529 10.5841 0.10549C8.67131 0.189826 7.35626 0.499428 6.21702 0.942265C5.00719 1.39939 3.92427 2.10265 3.02404 3.02404C2.10979 3.92427 1.39966 5.01433 0.949407 6.20988C0.506296 7.35626 0.196969 8.66416 0.112632 10.577C0.0211529 12.5041 0 13.1159 0 18.0036C0 22.8913 0.0211529 23.503 0.10549 25.423C0.189826 27.3358 0.499428 28.6509 0.942539 29.7904C1.39966 31 2.10979 32.0829 3.02404 32.9831C3.92427 33.8973 5.01433 34.6078 6.20988 35.0577C7.35626 35.5008 8.66416 35.8102 10.5773 35.8945C12.497 35.9791 13.109 36 17.9967 36C22.8844 36 23.4962 35.9791 25.4161 35.8945C27.329 35.8102 28.644 35.5008 29.7833 35.0577C32.2026 34.1223 34.1155 32.2095 35.0509 29.7904C35.4937 28.644 35.8033 27.3358 35.8876 25.423C35.972 23.503 35.9931 22.8913 35.9931 18.0036C35.9931 13.1159 35.986 12.5041 35.9017 10.5841ZM32.6598 25.2824C32.5823 27.0405 32.287 27.9899 32.0408 28.6229C31.4359 30.1912 30.1912 31.4359 28.6229 32.0408C27.9899 32.287 27.0337 32.5823 25.2824 32.6595C23.3835 32.7441 22.8141 32.765 18.0107 32.765C13.2074 32.765 12.6307 32.7441 10.7388 32.6595C8.98063 32.5823 8.03123 32.287 7.39829 32.0408C6.61783 31.7524 5.90742 31.2953 5.3308 30.6975C4.73303 30.1137 4.2759 29.4105 3.98745 28.63C3.74131 27.9971 3.446 27.0405 3.3688 25.2895C3.28419 23.3907 3.26331 22.8209 3.26331 18.0176C3.26331 13.2142 3.28419 12.6376 3.3688 10.7459C3.446 8.98777 3.74131 8.03837 3.98745 7.40543C4.2759 6.6247 4.73303 5.91456 5.33794 5.33767C5.92143 4.73989 6.6247 4.28277 7.40543 3.9946C8.03837 3.74845 8.99492 3.45314 10.7459 3.37567C12.6448 3.29133 13.2145 3.27018 18.0176 3.27018C22.8281 3.27018 23.3976 3.29133 25.2895 3.37567C27.0477 3.45314 27.9971 3.74845 28.63 3.9946C29.4105 4.28277 30.1209 4.73989 30.6975 5.33767C31.2953 5.92143 31.7524 6.6247 32.0408 7.40543C32.287 8.03837 32.5823 8.99464 32.6598 10.7459C32.7441 12.6448 32.7653 13.2142 32.7653 18.0176C32.7653 22.8209 32.7441 23.3835 32.6598 25.2824Z" fill="white"/>
<path d="M18.0038 8.75586C12.8983 8.75586 8.75586 12.898 8.75586 18.0038C8.75586 23.1096 12.8983 27.2517 18.0038 27.2517C23.1096 27.2517 27.2517 23.1096 27.2517 18.0038C27.2517 12.898 23.1096 8.75586 18.0038 8.75586ZM18.0038 24.0027C14.6916 24.0027 12.0049 21.3163 12.0049 18.0038C12.0049 14.6913 14.6916 12.0049 18.0038 12.0049C21.3163 12.0049 24.0027 14.6913 24.0027 18.0038C24.0027 21.3163 21.3163 24.0027 18.0038 24.0027Z" fill="white"/>
<path d="M29.777 8.39034C29.777 9.58282 28.8101 10.5497 27.6174 10.5497C26.4249 10.5497 25.458 9.58282 25.458 8.39034C25.458 7.19758 26.4249 6.23096 27.6174 6.23096C28.8101 6.23096 29.777 7.19758 29.777 8.39034Z" fill="white"/>
</svg>
