<svg width="52" height="36" viewBox="0 0 52 36" fill="none" xmlns="http://www.w3.org/2000/svg">
<path d="M50.7719 5.63314C50.1745 3.43041 48.4235 1.69402 46.203 1.10089C42.1463 0 25.9194 0 25.9194 0C25.9194 0 9.69312 0 5.63647 1.05916C3.45864 1.65166 1.66493 3.43072 1.06756 5.63314C0 9.65636 0 18 0 18C0 18 0 26.3857 1.06756 30.3669C1.66557 32.5693 3.41593 34.3057 5.63679 34.8988C9.73584 36 25.92 36 25.92 36C25.92 36 42.1463 36 46.203 34.9408C48.4239 34.348 50.1745 32.6116 50.7725 30.4092C51.8398 26.3857 51.8398 18.0424 51.8398 18.0424C51.8398 18.0424 51.8825 9.65636 50.7719 5.63314ZM20.7531 25.7081V10.2919L34.2466 18L20.7531 25.7081Z" fill="white"/>
</svg>
